<?xml version="1.0" encoding="UTF-8"?>
<svg version="1.1" xmlns="http://www.w3.org/2000/svg" width="465" height="536">
<path d="M0 0 C0.99 0.99 0.99 0.99 2 2 C1.37810488 6.38241718 -0.59778696 10.66944602 -2.0625 14.83203125 C-6.19185147 28.78579809 -3.79096154 43.87448563 2.75 56.625 C10.26925957 69.75592373 22.43050271 79.27555282 37.125 83.375 C50.76386582 85.79359229 63.74838816 84.43209622 76 78 C76.66 78 77.32 78 78 78 C96.23663309 119.80223867 101.02945536 165.98694246 84.10839844 209.30517578 C77.06832079 226.42155839 68.83205121 241.54594621 56.8828125 255.72265625 C54.8902753 258.05337046 54.8902753 258.05337046 53 261 C52.34 261 51.68 261 51 261 C50.7525 261.57234375 50.505 262.1446875 50.25 262.734375 C48.80683801 265.35010611 47.11783778 267.14773456 45 269.25 C44.29875 269.95640625 43.5975 270.6628125 42.875 271.390625 C41 273 41 273 39 273 C39 273.66 39 274.32 39 275 C38.34 275 37.68 275 37 275 C37 275.66 37 276.32 37 277 C35.70581055 278.2175293 35.70581055 278.2175293 33.88671875 279.57421875 C33.2218042 280.07332764 32.55688965 280.57243652 31.87182617 281.08666992 C31.15099854 281.61494385 30.4301709 282.14321777 29.6875 282.6875 C28.95055908 283.23059814 28.21361816 283.77369629 27.4543457 284.33325195 C6.25982091 299.83856173 -17.97667023 310.69310859 -44 315 C-45.18851563 315.20367187 -46.37703125 315.40734375 -47.6015625 315.6171875 C-88.52600163 321.70167641 -132.35101628 311.510439 -166.13916016 287.47851562 C-170.19555801 284.44035046 -174.10161708 281.23680601 -178 278 C-179.17755859 277.1646875 -179.17755859 277.1646875 -180.37890625 276.3125 C-180.91386719 275.879375 -181.44882813 275.44625 -182 275 C-182 274.34 -182 273.68 -182 273 C-182.85851562 272.62875 -182.85851562 272.62875 -183.734375 272.25 C-186.35010611 270.80683801 -188.14773456 269.11783778 -190.25 267 C-190.95640625 266.29875 -191.6628125 265.5975 -192.390625 264.875 C-194 263 -194 263 -194 261 C-194.66 261 -195.32 261 -196 261 C-197.7265625 259.1015625 -197.7265625 259.1015625 -199.625 256.625 C-200.25664062 255.81289063 -200.88828125 255.00078125 -201.5390625 254.1640625 C-203 252 -203 252 -203 250 C-203.66 250 -204.32 250 -205 250 C-208.44581403 245.55671349 -211.25618905 240.90236507 -214 236 C-214.56654297 234.99151001 -214.56654297 234.99151001 -215.14453125 233.96264648 C-224.75179532 216.69366833 -231.4347625 199.45308859 -235 180 C-235.22558594 178.86433594 -235.45117188 177.72867188 -235.68359375 176.55859375 C-238.7363199 158.38960986 -238.43676539 138.0872053 -235 120 C-234.87641113 119.34241699 -234.75282227 118.68483398 -234.62548828 118.00732422 C-226.33273327 75.31722658 -200.29371562 37.19365852 -164.546875 12.71484375 C-163.28617188 11.86599609 -163.28617188 11.86599609 -162 11 C-161.15953125 10.42378906 -160.3190625 9.84757812 -159.453125 9.25390625 C-112.64216711 -21.83798738 -50.24936805 -23.28909067 0 0 Z M-78.44921875 51.96484375 C-94.62508567 52.48263719 -110.04172058 59.31904736 -124 67 C-124 67.66 -124 68.32 -124 69 C-124.78375 69.309375 -125.5675 69.61875 -126.375 69.9375 C-128.92330128 70.92875038 -128.92330128 70.92875038 -131 72 C-131 72.66 -131 73.32 -131 74 C-131.53625 74.226875 -132.0725 74.45375 -132.625 74.6875 C-135.82460161 76.45570089 -138.29037223 78.53670203 -141 81 C-141 81.66 -141 82.32 -141 83 C-141.66 83 -142.32 83 -143 83 C-146.02517909 86.05558423 -146.02517909 86.05558423 -147 90 C-147.66 90 -148.32 90 -149 90 C-165.96468816 111.93323799 -171.02646178 137.52895532 -168.69140625 164.57421875 C-165.84545944 183.43806085 -157.39256056 199.06521472 -146 214 C-145.26716797 215.01320313 -145.26716797 215.01320313 -144.51953125 216.046875 C-137.38089338 225.27219164 -126.11844841 232.51020352 -116 238 C-115.39671875 238.35320312 -114.7934375 238.70640625 -114.171875 239.0703125 C-92.56600112 251.00051243 -66.65286614 251.30980884 -43.44140625 244.74609375 C-30.61590125 240.88830084 -20.23933037 234.91115483 -9.8046875 226.4453125 C-8 225 -8 225 -5 223 C-5 222.34 -5 221.68 -5 221 C-4.34 221 -3.68 221 -3 221 C-3 220.34 -3 219.68 -3 219 C-2.34 219 -1.68 219 -1 219 C19.11734064 198.17312659 26.4353674 172.71877703 26.14453125 144.5703125 C25.70258868 122.87560338 16.3516799 101.2223673 2 85 C1.34 85 0.68 85 0 85 C-0.268125 84.401875 -0.53625 83.80375 -0.8125 83.1875 C-1.99917406 81.00152146 -3.09599113 79.58667406 -5 78 C-5.66 78 -6.32 78 -7 78 C-7 77.34 -7 76.68 -7 76 C-8.65 75.34 -10.3 74.68 -12 74 C-12 73.34 -12 72.68 -12 72 C-32.06293774 56.48193183 -53.84538268 52.21561898 -78.44921875 51.96484375 Z " fill="currentColor" transform="translate(304,118)"/>
<path d="M0 0 C0 0.66 0 1.32 0 2 C0.556875 2.226875 1.11375 2.45375 1.6875 2.6875 C8.76029643 6.70178986 13.16026667 14.06651661 15.8125 21.5625 C19.21586296 34.18411464 17.24321733 46.7027496 11 58 C10.34 58 9.68 58 9 58 C8.34 59.65 7.68 61.3 7 63 C6.34 63 5.68 63 5 63 C5 63.66 5 64.32 5 65 C2.875 66.62109375 2.875 66.62109375 0 68.4375 C-0.928125 69.03433594 -1.85625 69.63117188 -2.8125 70.24609375 C-9.63132278 73.99811756 -15.45723351 75.56262752 -23.25 75.5 C-24.08192871 75.49427979 -24.91385742 75.48855957 -25.77099609 75.48266602 C-36.57961056 75.17142319 -46.48464989 70.95346469 -54 63 C-55.2421875 60.28125 -55.2421875 60.28125 -56 58 C-56.66 58 -57.32 58 -58 58 C-58.81917642 56.27398621 -59.63006016 54.5440353 -60.4375 52.8125 C-60.88996094 51.84957031 -61.34242188 50.88664062 -61.80859375 49.89453125 C-65.5576052 40.78627721 -65.52646999 28.2256466 -62 19 C-59.11178784 13.20612424 -55.85012875 8.33958888 -51 4 C-50.443125 3.34 -49.88625 2.68 -49.3125 2 C-35.21760724 -10.19017752 -15.41094422 -7.84685692 0 0 Z " fill="currentColor" transform="translate(378,113)"/>
<path d="M0 0 C3.41434889 2.27623259 4.00030635 3.62952881 5.625 7.3125 C6.05039062 8.25738281 6.47578125 9.20226562 6.9140625 10.17578125 C10.85219798 20.4177667 10.15599062 32.94699567 6 43 C5.05631317 45.02717912 4.08155503 47.04290043 3 49 C2.34 49 1.68 49 1 49 C0.01 51.475 0.01 51.475 -1 54 C-1.66 53.67 -2.32 53.34 -3 53 C-3 51.35 -3 49.7 -3 48 C-1.515 47.505 -1.515 47.505 0 47 C-0.33 46.34 -0.66 45.68 -1 45 C0.20502961 40.94671859 2.30879747 38.21208044 5 35 C8.21439463 28.57121075 6.11769994 17.98562466 5 11 C4.01 11.495 4.01 11.495 3 12 C3 10.02 3 8.04 3 6 C2.34 6 1.68 6 1 6 C0.67 4.02 0.34 2.04 0 0 Z " fill="currentColor" transform="translate(386,122)"/>
<path d="M0 0 C0 0.66 0 1.32 0 2 C0.5775 2.2475 1.155 2.495 1.75 2.75 C4.3002997 4.16683317 6.01785701 5.87627537 8 8 C7.34 8.33 6.68 8.66 6 9 C3.875 8.0625 3.875 8.0625 2 7 C2 6.34 2 5.68 2 5 C-0.31 4.34 -2.62 3.68 -5 3 C-5 2.34 -5 1.68 -5 1 C-7.475 0.01 -7.475 0.01 -10 -1 C-10 -1.66 -10 -2.32 -10 -3 C-14.22915217 -3.02908633 -18.45827852 -3.04682792 -22.6875 -3.0625 C-23.88568359 -3.07087891 -25.08386719 -3.07925781 -26.31835938 -3.08789062 C-27.47529297 -3.09111328 -28.63222656 -3.09433594 -29.82421875 -3.09765625 C-31.41882935 -3.10551147 -31.41882935 -3.10551147 -33.0456543 -3.11352539 C-35.8134509 -3.00716844 -38.30792897 -2.62894788 -41 -2 C-30.27263949 -11.48958815 -11.14895679 -5.6767624 0 0 Z " fill="currentColor" transform="translate(378,113)"/>
<path d="M0 0 C-4.80220249 5.23740209 -10.72179893 6.99594192 -17.70703125 7.32421875 C-19.40863357 7.35642625 -21.11059384 7.37321773 -22.8125 7.375 C-23.63685547 7.37653076 -24.46121094 7.37806152 -25.31054688 7.37963867 C-29.63162569 7.30084149 -33.06731751 6.9942609 -37 5 C-37 4.67 -37 4.34 -37 4 C-27.76 4 -18.52 4 -9 4 C-8.67 2.68 -8.34 1.36 -8 0 C-5.13822943 -1.43088528 -3.06624227 -0.59991697 0 0 Z " fill="currentColor" transform="translate(377,181)"/>
<path d="M0 0 C0.66 0.33 1.32 0.66 2 1 C1.13375 1.93972656 1.13375 1.93972656 0.25 2.8984375 C-0.4925 3.71570313 -1.235 4.53296875 -2 5.375 C-2.7425 6.18710938 -3.485 6.99921875 -4.25 7.8359375 C-6.20959813 9.79533992 -6.20959813 9.79533992 -6 12 C-7.32 12 -8.64 12 -10 12 C-10.0825 12.7425 -10.165 13.485 -10.25 14.25 C-11.1396946 17.51221354 -12.48503749 18.80954878 -15 21 C-15.99 20.67 -16.98 20.34 -18 20 C-18.99 20.66 -19.98 21.32 -21 22 C-19.37831917 17.8917419 -16.41262403 15.14937268 -13.3125 12.125 C-12.5076416 11.32980957 -12.5076416 11.32980957 -11.68652344 10.51855469 C-7.92997052 6.8344609 -4.07382125 3.33312647 0 0 Z " fill="currentColor" transform="translate(129,138)"/>
<path d="M0 0 C1.18695916 3.42779714 0.82295187 5.28393343 -0.4765625 8.6328125 C-0.81816406 9.52226562 -1.15976562 10.41171875 -1.51171875 11.328125 C-1.87910156 12.25109375 -2.24648438 13.1740625 -2.625 14.125 C-2.96917969 15.02476562 -3.31335938 15.92453125 -3.66796875 16.8515625 C-6.09727741 23.09067257 -8.90862854 29.0629609 -12 35 C-12.33 35 -12.66 35 -13 35 C-13 33.35 -13 31.7 -13 30 C-12.34 30 -11.68 30 -11 30 C-11 28.02 -11 26.04 -11 24 C-10.01 24 -9.02 24 -8 24 C-7.855625 22.906875 -7.71125 21.81375 -7.5625 20.6875 C-7 17 -7 17 -6 14 C-5.34 14 -4.68 14 -4 14 C-4.33 12.68 -4.66 11.36 -5 10 C-4.01 9.67 -3.02 9.34 -2 9 C-1.19436362 6.89415562 -1.19436362 6.89415562 -0.8125 4.4375 C-0.57466797 3.19806641 -0.57466797 3.19806641 -0.33203125 1.93359375 C-0.22246094 1.29550781 -0.11289062 0.65742188 0 0 Z " fill="currentColor" transform="translate(391,312)"/>
<path d="M0 0 C1.09634766 -0.00773437 2.19269531 -0.01546875 3.32226562 -0.0234375 C4.36705078 -0.02085938 5.41183594 -0.01828125 6.48828125 -0.015625 C7.43872314 -0.01336914 8.38916504 -0.01111328 9.3684082 -0.00878906 C11.6875 0.25 11.6875 0.25 13.6875 2.25 C12.67381348 2.23428955 12.67381348 2.23428955 11.63964844 2.21826172 C8.57230358 2.17664024 5.50501822 2.15065427 2.4375 2.125 C1.37402344 2.10824219 0.31054688 2.09148437 -0.78515625 2.07421875 C-2.32236328 2.06455078 -2.32236328 2.06455078 -3.890625 2.0546875 C-4.83325195 2.04421387 -5.77587891 2.03374023 -6.74707031 2.02294922 C-9.45391715 2.26251598 -10.96504829 2.94063274 -13.3125 4.25 C-14.446875 4.559375 -15.58125 4.86875 -16.75 5.1875 C-20.30505162 6.08745703 -20.30505162 6.08745703 -23.125 7.9375 C-23.846875 8.370625 -24.56875 8.80375 -25.3125 9.25 C-25.9725 8.92 -26.6325 8.59 -27.3125 8.25 C-19.67523176 0.0672126 -10.61903675 -0.07625879 0 0 Z " fill="currentColor" transform="translate(354.3125,108.75)"/>
<path d="M0 0 C0.28571429 8.57142857 0.28571429 8.57142857 -2 12 C-2.66 12 -3.32 12 -4 12 C-4.66 13.65 -5.32 15.3 -6 17 C-6.66 16.67 -7.32 16.34 -8 16 C-8 14.35 -8 12.7 -8 11 C-7.01 10.67 -6.02 10.34 -5 10 C-5.33 9.34 -5.66 8.68 -6 8 C-3.53846154 0 -3.53846154 0 0 0 Z " fill="currentColor" transform="translate(391,159)"/>
<path d="M0 0 C0.99 1.32 1.98 2.64 3 4 C1.06979393 8.14994304 -1.11527766 11.46388874 -4 15 C-4.70885894 16.31138904 -5.39456452 17.63777017 -6 19 C-7.12642186 15.62073443 -6.96344705 15.27071722 -5.56640625 12.20703125 C-5.0878418 11.1387207 -5.0878418 11.1387207 -4.59960938 10.04882812 C-4.25736328 9.31083984 -3.91511719 8.57285156 -3.5625 7.8125 C-3.22412109 7.06291016 -2.88574219 6.31332031 -2.53710938 5.54101562 C-1.7000589 3.69007302 -0.85114596 1.84450334 0 0 Z " fill="currentColor" transform="translate(83,196)"/>
<path d="M0 0 C0.66 0.33 1.32 0.66 2 1 C1.2884375 1.61875 1.2884375 1.61875 0.5625 2.25 C-1.16266518 4.182185 -1.56584875 5.48192275 -2 8 C-2.66 8 -3.32 8 -4 8 C-4 8.66 -4 9.32 -4 10 C-5.28926992 10.36279456 -6.58153272 10.71496698 -7.875 11.0625 C-8.59429687 11.25972656 -9.31359375 11.45695312 -10.0546875 11.66015625 C-12 12 -12 12 -14 11 C-13.15695312 10.37351562 -12.31390625 9.74703125 -11.4453125 9.1015625 C-10.33847821 8.27612676 -9.23171086 7.45060124 -8.125 6.625 C-7.56941406 6.2125 -7.01382812 5.8 -6.44140625 5.375 C-4.1649876 3.6745427 -2.0120881 2.0120881 0 0 Z " fill="currentColor" transform="translate(297,341)"/>
<path d="M0 0 C0 3.22981983 -0.81530252 5.03825629 -2 8 C-2 8.99 -2 9.98 -2 11 C-4.1875 13.375 -4.1875 13.375 -7 16 C-7.928125 16.928125 -8.85625 17.85625 -9.8125 18.8125 C-10.534375 19.534375 -11.25625 20.25625 -12 21 C-10.42341158 16.68901603 -8.28679418 12.77710513 -6 8.8125 C-5.64421875 8.18408203 -5.2884375 7.55566406 -4.921875 6.90820312 C-3.44557229 4.33293627 -2.10861274 2.10861274 0 0 Z " fill="currentColor" transform="translate(98,171)"/>
<path d="M0 0 C0.66 0.33 1.32 0.66 2 1 C1.34 2.98 0.68 4.96 0 7 C-1.32 6.67 -2.64 6.34 -4 6 C-4.33 6.99 -4.66 7.98 -5 9 C-5.99 9 -6.98 9 -8 9 C-8.66 9.66 -9.32 10.32 -10 11 C-12.125 10.625 -12.125 10.625 -14 10 C-12.22970554 8.70759488 -10.45874502 7.41610207 -8.6875 6.125 C-7.70136719 5.40570313 -6.71523437 4.68640625 -5.69921875 3.9453125 C-3.82476885 2.5944065 -1.92247007 1.28164671 0 0 Z " fill="currentColor" transform="translate(145,127)"/>
<path d="M0 0 C9.09504429 -0.62485037 9.09504429 -0.62485037 12.625 1.8125 C14 4 14 4 14 7 C10.27792613 7 8.53604411 5.82035432 5.3125 4 C4.31863281 3.443125 3.32476562 2.88625 2.30078125 2.3125 C1.54152344 1.879375 0.78226562 1.44625 0 1 C0 0.67 0 0.34 0 0 Z " fill="currentColor" transform="translate(275,180)"/>
<path d="M0 0 C0.886875 0.804375 1.77375 1.60875 2.6875 2.4375 C5.38287032 4.7039159 7.42063478 5.68417366 11 6 C11.33 6.99 11.66 7.98 12 9 C7.94180817 8.34496718 4.46028718 7.05440879 0.6875 5.4375 C-0.38113281 4.98246094 -1.44976562 4.52742188 -2.55078125 4.05859375 C-3.35902344 3.70925781 -4.16726562 3.35992187 -5 3 C-4.360625 2.690625 -3.72125 2.38125 -3.0625 2.0625 C-1.06389179 1.1654837 -1.06389179 1.1654837 0 0 Z " fill="currentColor" transform="translate(166,416)"/>
<path d="M0 0 C0.99 0.495 0.99 0.495 2 1 C2 1.99 2 2.98 2 4 C2.66 4 3.32 4 4 4 C4.50559908 5.43554025 5.0042749 6.8735202 5.5 8.3125 C5.7784375 9.11300781 6.056875 9.91351563 6.34375 10.73828125 C7 13 7 13 7 16 C6.34 16 5.68 16 5 16 C4.15488176 14.27656245 3.32436646 12.54595947 2.5 10.8125 C2.0359375 9.84957031 1.571875 8.88664063 1.09375 7.89453125 C0.00407079 5.01077307 -0.22277524 3.04645139 0 0 Z " fill="currentColor" transform="translate(315,155)"/>
<path d="M0 0 C0.99 0.33 1.98 0.66 3 1 C3.309375 1.804375 3.61875 2.60875 3.9375 3.4375 C4.76608159 6.14157493 4.76608159 6.14157493 7.125 7.3125 C7.74375 7.539375 8.3625 7.76625 9 8 C8.67 8.33 8.34 8.66 8 9 C9.65 9.33 11.3 9.66 13 10 C12.67 10.99 12.34 11.98 12 13 C7.48548039 11.53942013 4.42147956 9.26941381 1 6 C-0.375 3.1875 -0.375 3.1875 -1 1 C-0.67 0.67 -0.34 0.34 0 0 Z " fill="currentColor" transform="translate(323,170)"/>
<path d="M0 0 C1.60031344 3.20062687 0.03173691 5.72271806 -1 9 C-1.66 9 -2.32 9 -3 9 C-3.33 15.27 -3.66 21.54 -4 28 C-4.33 28 -4.66 28 -5 28 C-5.51784823 7.77514978 -5.51784823 7.77514978 0 0 Z " fill="currentColor" transform="translate(319,127)"/>
<path d="M0 0 C0.33 0.66 0.66 1.32 1 2 C-0.21484375 4.3828125 -0.21484375 4.3828125 -1.9375 7.125 C-2.50339844 8.03507812 -3.06929688 8.94515625 -3.65234375 9.8828125 C-4.09707031 10.58148438 -4.54179687 11.28015625 -5 12 C-5.5534764 9.92446352 -6 8.15634036 -6 6 C-6.66 5.67 -7.32 5.34 -8 5 C-7.01 4.67 -6.02 4.34 -5 4 C-4.67 3.01 -4.34 2.02 -4 1 C-3.01 1 -2.02 1 -1 1 C-0.67 0.67 -0.34 0.34 0 0 Z " fill="currentColor" transform="translate(377,347)"/>
<path d="M0 0 C3.40414055 2.26942703 4.03709492 3.64988933 5.6875 7.3125 C6.12449219 8.25738281 6.56148438 9.20226562 7.01171875 10.17578125 C7.99998627 12.99996075 8.19969132 15.03701261 8 18 C7.34 17.67 6.68 17.34 6 17 C5.375 13.9375 5.375 13.9375 5 11 C4.01 11.495 4.01 11.495 3 12 C3 10.02 3 8.04 3 6 C2.34 6 1.68 6 1 6 C0.67 4.02 0.34 2.04 0 0 Z " fill="currentColor" transform="translate(386,122)"/>
<path d="M0 0 C0.66 0.33 1.32 0.66 2 1 C1.4225 1.62648437 0.845 2.25296875 0.25 2.8984375 C-0.4925 3.71570313 -1.235 4.53296875 -2 5.375 C-2.7425 6.18710938 -3.485 6.99921875 -4.25 7.8359375 C-6.20959813 9.79533992 -6.20959813 9.79533992 -6 12 C-7.98 12 -9.96 12 -12 12 C-8.39424999 7.41086363 -4.52615993 3.67832017 0 0 Z " fill="currentColor" transform="translate(129,138)"/>
<path d="M0 0 C1.32 0 2.64 0 4 0 C2.63055898 2.94956528 1.12169591 5.52468811 -1 8 C-1.66 8 -2.32 8 -3 8 C-3.66 9.32 -4.32 10.64 -5 12 C-6.24546405 9.50907189 -5.7767578 8.58919267 -5 6 C-4.01 6 -3.02 6 -2 6 C-1.855625 5.195625 -1.71125 4.39125 -1.5625 3.5625 C-1 1 -1 1 0 0 Z " fill="currentColor" transform="translate(358,371)"/>
<path d="M0 0 C-2.69277589 3.32637022 -6.03724749 4.58473125 -10 6 C-10.99 5.67 -11.98 5.34 -13 5 C-11.68 4.67 -10.36 4.34 -9 4 C-8.814375 3.0409375 -8.814375 3.0409375 -8.625 2.0625 C-8.41875 1.381875 -8.2125 0.70125 -8 0 C-5.13822943 -1.43088528 -3.06624227 -0.59991697 0 0 Z " fill="currentColor" transform="translate(377,181)"/>
<path d="M0 0 C2 1 2 1 2 1 Z M-3 1 C0.375 1.25 0.375 1.25 4 2 C5.4375 4.0625 5.4375 4.0625 6 6 C4.375 6.6875 4.375 6.6875 2 7 C-1.25 5.5625 -1.25 5.5625 -4 4 C-3.67 3.01 -3.34 2.02 -3 1 Z " fill="currentColor" transform="translate(378,199)"/>
<path d="M0 0 C1.65 0 3.3 0 5 0 C1.64416485 3.915141 -2.28066362 6.0795774 -7 8 C-7.66 8 -8.32 8 -9 8 C-9 7.01 -9 6.02 -9 5 C-7.88625 4.525625 -6.7725 4.05125 -5.625 3.5625 C-3.73289006 2.74693537 -1.84287291 1.92143645 0 1 C0 0.67 0 0.34 0 0 Z " fill="currentColor" transform="translate(313,410)"/>
<path d="M0 0 C1.9375 0.75 1.9375 0.75 4 2 C5.37358284 5.20502663 5.07819099 8.55959638 5 12 C1.94063363 8.24532309 0 4.91886939 0 0 Z " fill="currentColor" transform="translate(78,327)"/>
<path d="M0 0 C2.375 -0.125 2.375 -0.125 5 0 C5.66 0.66 6.32 1.32 7 2 C6.625 4.125 6.625 4.125 6 6 C5.01 6 4.02 6 3 6 C0 2.66666667 0 2.66666667 0 0 Z " fill="currentColor" transform="translate(310,208)"/>
<path d="M0 0 C3.63 0 7.26 0 11 0 C10.01 1.485 10.01 1.485 9 3 C8.34 3 7.68 3 7 3 C7 3.66 7 4.32 7 5 C7.66 5 8.32 5 9 5 C9 5.66 9 6.32 9 7 C7.68 6.67 6.36 6.34 5 6 C5 5.01 5 4.02 5 3 C2.525 2.01 2.525 2.01 0 1 C0 0.67 0 0.34 0 0 Z " fill="currentColor" transform="translate(330,178)"/>
<path d="M0 0 C1.32 0 2.64 0 4 0 C4 0.66 4 1.32 4 2 C5.98 1.67 7.96 1.34 10 1 C9.67 2.32 9.34 3.64 9 5 C9.639375 5.12375 10.27875 5.2475 10.9375 5.375 C11.618125 5.58125 12.29875 5.7875 13 6 C13.33 6.66 13.66 7.32 14 8 C8.76481294 6.56032356 4.36973991 4.18303389 0 1 C0 0.67 0 0.34 0 0 Z " fill="currentColor" transform="translate(147,410)"/>
<path d="M0 0 C2.50719458 2.32649587 4.32183601 4.82681521 6.1875 7.6875 C6.71730469 8.49574219 7.24710938 9.30398438 7.79296875 10.13671875 C8.39044922 11.05904297 8.39044922 11.05904297 9 12 C8.67 12.66 8.34 13.32 8 14 C6 12.75 6 12.75 4 11 C4 9.68 4 8.36 4 7 C2.68 6.67 1.36 6.34 0 6 C0 4.02 0 2.04 0 0 Z " fill="currentColor" transform="translate(145,313)"/>
<path d="M0 0 C0 3.99904969 -1.72586967 5.80200422 -4 9 C-4.33 8.34 -4.66 7.68 -5 7 C-5.66 6.67 -6.32 6.34 -7 6 C-6.67 4.35 -6.34 2.7 -6 1 C-4.7934375 1.0309375 -4.7934375 1.0309375 -3.5625 1.0625 C-1.06645115 1.29633621 -1.06645115 1.29633621 0 0 Z " fill="currentColor" transform="translate(154,208)"/>
<path d="M0 0 C0.33 0.66 0.66 1.32 1 2 C0.0625 4.125 0.0625 4.125 -1 6 C-1.66 6 -2.32 6 -3 6 C-3.66 7.65 -4.32 9.3 -5 11 C-5.66 10.67 -6.32 10.34 -7 10 C-7 8.35 -7 6.7 -7 5 C-6.360625 4.896875 -5.72125 4.79375 -5.0625 4.6875 C-4.381875 4.460625 -3.70125 4.23375 -3 4 C-2.67 3.01 -2.34 2.02 -2 1 C-1.34 0.67 -0.68 0.34 0 0 Z " fill="currentColor" transform="translate(390,165)"/>
<path d="M0 0 C-0.61875 0.28875 -1.2375 0.5775 -1.875 0.875 C-4.13325765 1.93720042 -4.13325765 1.93720042 -6 4 C-8.8203125 4.1953125 -8.8203125 4.1953125 -12.125 4.125 C-13.22070312 4.10695313 -14.31640625 4.08890625 -15.4453125 4.0703125 C-16.28835937 4.04710938 -17.13140625 4.02390625 -18 4 C-12.40185694 0.26790462 -6.54467462 -0.27269478 0 0 Z " fill="currentColor" transform="translate(202,106)"/>
<path d="M0 0 C1.32 0 2.64 0 4 0 C4 0.66 4 1.32 4 2 C2.1015625 3.7265625 2.1015625 3.7265625 -0.375 5.625 C-1.59316406 6.57246094 -1.59316406 6.57246094 -2.8359375 7.5390625 C-5 9 -5 9 -7 9 C-5.59728322 4.79184965 -3.66227337 3.44151558 0 1 C0 0.67 0 0.34 0 0 Z " fill="currentColor" transform="translate(337,393)"/>
<path d="M0 0 C5.11365014 1.0681847 10.07227969 2.23107476 15 4 C11.3791799 5.01382963 7.72188582 5.49897691 4 6 C4 5.01 4 4.02 4 3 C2.05990478 1.29467677 2.05990478 1.29467677 0 0 Z " fill="currentColor" transform="translate(197,360)"/>
<path d="M0 0 C2.97 0.33 5.94 0.66 9 1 C9 1.33 9 1.66 9 2 C-0.41002278 4.29612756 -0.41002278 4.29612756 -5 4 C-4.360625 3.71125 -3.72125 3.4225 -3.0625 3.125 C-0.84793921 2.17176549 -0.84793921 2.17176549 0 0 Z " fill="currentColor" transform="translate(265,428)"/>
<path d="M0 0 C1.08030956 3.31809364 0.92122208 5.71803947 0.25 9.125 C0.01023437 10.42824219 0.01023437 10.42824219 -0.234375 11.7578125 C-1 14 -1 14 -4 16 C-3.71515154 14.26969709 -3.42180062 12.54079286 -3.125 10.8125 C-2.96257812 9.84957031 -2.80015625 8.88664063 -2.6328125 7.89453125 C-2.01960483 5.08967396 -1.14333657 2.62775253 0 0 Z " fill="currentColor" transform="translate(75,216)"/>
<path d="M0 0 C1.670625 0.061875 1.670625 0.061875 3.375 0.125 C2.385 0.62 2.385 0.62 1.375 1.125 C1.375 1.785 1.375 2.445 1.375 3.125 C-0.275 3.785 -1.925 4.445 -3.625 5.125 C-3.625 4.465 -3.625 3.805 -3.625 3.125 C-4.285 2.795 -4.945 2.465 -5.625 2.125 C-3.625 0.125 -3.625 0.125 0 0 Z " fill="currentColor" transform="translate(178.625,183.875)"/>
<path d="M0 0 C0 3.39593478 -0.52165948 4.06619881 -2.5 6.6875 C-2.9640625 7.31011719 -3.428125 7.93273437 -3.90625 8.57421875 C-4.2671875 9.04472656 -4.628125 9.51523437 -5 10 C-5.66 8.68 -6.32 7.36 -7 6 C-6.34 5.34 -5.68 4.68 -5 4 C-4.01 4 -3.02 4 -2 4 C-1.34 2.68 -0.68 1.36 0 0 Z " fill="currentColor" transform="translate(370,359)"/>
<path d="M0 0 C2.64465038 3.1254959 3.84414715 6.08788267 5 10 C4.01 10 3.02 10 2 10 C-0.09350689 6.5980513 -0.17942163 3.94727588 0 0 Z " fill="currentColor" transform="translate(302,167)"/>
<path d="M0 0 C-1.5 2 -1.5 2 -4 4 C-6.75871627 4.35800135 -9.20097524 4.18660165 -12 4 C-9.94577945 1.94577945 -8.66990976 1.31862408 -6 0.3125 C-5.29875 0.04050781 -4.5975 -0.23148437 -3.875 -0.51171875 C-2 -1 -2 -1 0 0 Z " fill="currentColor" transform="translate(178,113)"/>
<path d="M0 0 C0.99 0 1.98 0 3 0 C3.33 1.65 3.66 3.3 4 5 C4.66 5 5.32 5 6 5 C6.625 6.875 6.625 6.875 7 9 C6.34 9.66 5.68 10.32 5 11 C4.16151196 9.54462432 3.32936066 8.08559627 2.5 6.625 C1.80390625 5.40683594 1.80390625 5.40683594 1.09375 4.1640625 C0 2 0 2 0 0 Z " fill="currentColor" transform="translate(315,215)"/>
<path d="M0 0 C0 3.52032428 -0.70351351 4.4385343 -3 7 C-3.66 7 -4.32 7 -5 7 C-5.66 5.68 -6.32 4.36 -7 3 C-4.69 2.01 -2.38 1.02 0 0 Z " fill="currentColor" transform="translate(160,201)"/>
<path d="M0 0 C2.89932357 2.39509338 3.50168276 4.31245243 4 8 C3.34 8 2.68 8 2 8 C0.7109375 6.46875 0.7109375 6.46875 -0.625 4.5 C-1.29402344 3.52546875 -1.29402344 3.52546875 -1.9765625 2.53125 C-2.31429688 2.0259375 -2.65203125 1.520625 -3 1 C-2.01 0.67 -1.02 0.34 0 0 Z " fill="currentColor" transform="translate(302,195)"/>
<path d="M0 0 C0.66 0.33 1.32 0.66 2 1 C1.5 2.875 1.5 2.875 0 5 C-2.65177645 5.98494554 -5.20547307 6.45912382 -8 7 C-5.42215154 4.35247996 -3.08351902 2.05567935 0 0 Z " fill="currentColor" transform="translate(145,127)"/>
<path d="M0 0 C0.66 0 1.32 0 2 0 C1.67 1.32 1.34 2.64 1 4 C0.34 4 -0.32 4 -1 4 C-1.103125 4.639375 -1.20625 5.27875 -1.3125 5.9375 C-1.539375 6.618125 -1.76625 7.29875 -2 8 C-2.99 8.33 -3.98 8.66 -5 9 C-3.7580393 5.56072421 -2.44259716 2.74792181 0 0 Z " fill="currentColor" transform="translate(325,118)"/>
<path d="M0 0 C0.66 0 1.32 0 2 0 C3.625 2 3.625 2 5 4 C5.66 3.67 6.32 3.34 7 3 C7.33 4.98 7.66 6.96 8 9 C7.34 9 6.68 9 6 9 C4.4921875 7.28515625 4.4921875 7.28515625 2.875 5.0625 C2.33617188 4.33160156 1.79734375 3.60070312 1.2421875 2.84765625 C0 1 0 1 0 0 Z " fill="currentColor" transform="translate(102,370)"/>
<path d="M0 0 C3.77545388 1.09068668 6.47043472 1.9083091 9 5 C7.68 5 6.36 5 5 5 C5 4.34 5 3.68 5 3 C3.35 3.33 1.7 3.66 0 4 C0 2.68 0 1.36 0 0 Z " fill="currentColor" transform="translate(179,351)"/>
<path d="M0 0 C0.66 0.33 1.32 0.66 2 1 C1.2884375 1.61875 1.2884375 1.61875 0.5625 2.25 C-1.16266518 4.182185 -1.56584875 5.48192275 -2 8 C-3.32 8.33 -4.64 8.66 -6 9 C-4.68775452 5.06326356 -3.08089673 2.77280706 0 0 Z " fill="currentColor" transform="translate(297,341)"/>
<path d="M0 0 C3 1 3 1 4.1875 2.875 C5 5 5 5 5 8 C3.0625 7.375 3.0625 7.375 1 6 C0.25 2.875 0.25 2.875 0 0 Z " fill="currentColor" transform="translate(284,180)"/>
<path d="M0 0 C2.875 0.6875 2.875 0.6875 6 2 C7.375 4.625 7.375 4.625 8 7 C2.25 3.375 2.25 3.375 0 0 Z " fill="currentColor" transform="translate(124,393)"/>
<path d="M0 0 C1.98 0.66 3.96 1.32 6 2 C5.01 3.485 5.01 3.485 4 5 C4.30840599 7.15274948 4.30840599 7.15274948 5 9 C4.01 8.67 3.02 8.34 2 8 C2 6.02 2 4.04 2 2 C1.34 2 0.68 2 0 2 C0 1.34 0 0.68 0 0 Z " fill="currentColor" transform="translate(190,357)"/>
<path d="M0 0 C0.33 0.99 0.66 1.98 1 3 C1.66 3 2.32 3 3 3 C3 3.66 3 4.32 3 5 C2.236875 5.12375 1.47375 5.2475 0.6875 5.375 C-2.20267136 5.88102792 -2.20267136 5.88102792 -5 8 C-3.62845496 5.04590299 -2.01136276 2.55991624 0 0 Z " fill="currentColor" transform="translate(314,322)"/>
<path d="M0 0 C3.63 0.66 7.26 1.32 11 2 C11 2.33 11 2.66 11 3 C9.02 3.33 7.04 3.66 5 4 C5 3.34 5 2.68 5 2 C3.68 2.33 2.36 2.66 1 3 C0.67 2.01 0.34 1.02 0 0 Z " fill="currentColor" transform="translate(335,200)"/>
<path d="M0 0 C-1.28650706 0.69710731 -2.57940665 1.38242876 -3.875 2.0625 C-4.95394531 2.63677734 -4.95394531 2.63677734 -6.0546875 3.22265625 C-6.69664062 3.47917969 -7.33859375 3.73570312 -8 4 C-8.66 3.67 -9.32 3.34 -10 3 C-9.67 2.01 -9.34 1.02 -9 0 C-3.375 -1.125 -3.375 -1.125 0 0 Z " fill="currentColor" transform="translate(194,179)"/>
<path d="M0 0 C1.9375 0.5625 1.9375 0.5625 4 2 C4.75 5.625 4.75 5.625 5 9 C4.34 9 3.68 9 3 9 C0 3.375 0 3.375 0 0 Z " fill="currentColor" transform="translate(317,162)"/>
<path d="M0 0 C4.75 0.75 4.75 0.75 7 3 C6.625 5.125 6.625 5.125 6 7 C5.38125 6.21625 4.7625 5.4325 4.125 4.625 C2.10141339 2.03162353 2.10141339 2.03162353 0 0 Z " fill="currentColor" transform="translate(299,117)"/>
<path d="M0 0 C3.55780196 0.60990891 6.6828589 1.5783681 10 3 C9.01 3.33 8.02 3.66 7 4 C6.34 3.67 5.68 3.34 5 3 C4.67 3.66 4.34 4.32 4 5 C2.64567325 3.68799596 1.31266518 2.35368596 0 1 C0 0.67 0 0.34 0 0 Z " fill="currentColor" transform="translate(289,113)"/>
<path d="M0 0 C2.97 0.33 5.94 0.66 9 1 C9.33 1.99 9.66 2.98 10 4 C6.44219804 3.39009109 3.3171411 2.4216319 0 1 C0 0.67 0 0.34 0 0 Z " fill="currentColor" transform="translate(168,421)"/>
<path d="M0 0 C2.97 0.495 2.97 0.495 6 1 C6.33 2.65 6.66 4.3 7 6 C3.63279613 4.60667426 2.0140476 3.0210714 0 0 Z " fill="currentColor" transform="translate(115,385)"/>
<path d="M0 0 C0.99 0.33 1.98 0.66 3 1 C2.67 2.65 2.34 4.3 2 6 C1.34 6 0.68 6 0 6 C-0.66 4.35 -1.32 2.7 -2 1 C-1.34 0.67 -0.68 0.34 0 0 Z " fill="currentColor" transform="translate(99,362)"/>
<path d="M0 0 C0.99 1.32 1.98 2.64 3 4 C2.01 5.485 2.01 5.485 1 7 C0.34 7 -0.32 7 -1 7 C-0.67 4.69 -0.34 2.38 0 0 Z " fill="currentColor" transform="translate(83,196)"/>
</svg>
