<?xml version="1.0" encoding="UTF-8"?>
<svg xmlns="http://www.w3.org/2000/svg" viewBox="0 0 900 536" width="900" height="536" role="img" aria-label="Offery">
<g>
<path d="M0 0 C0.99 0.99 0.99 0.99 2 2 C1.37810488 6.38241718 -0.59778696 10.66944602 -2.0625 14.83203125 C-6.19185147 28.78579809 -3.79096154 43.87448563 2.75 56.625 C10.26925957 69.75592373 22.43050271 79.27555282 37.125 83.375 C50.76386582 85.79359229 63.74838816 84.43209622 76 78 C76.66 78 77.32 78 78 78 C96.23663309 119.80223867 101.02945536 165.98694246 84.10839844 209.30517578 C77.06832079 226.42155839 68.83205121 241.54594621 56.8828125 255.72265625 C54.8902753 258.05337046 54.8902753 258.05337046 53 261 C52.34 261 51.68 261 51 261 C50.7525 261.57234375 50.505 262.1446875 50.25 262.734375 C48.80683801 265.35010611 47.11783778 267.14773456 45 269.25 C44.29875 269.95640625 43.5975 270.6628125 42.875 271.390625 C41 273 41 273 39 273 C39 273.66 39 274.32 39 275 C38.34 275 37.68 275 37 275 C37 275.66 37 276.32 37 277 C35.70581055 278.2175293 35.70581055 278.2175293 33.88671875 279.57421875 C33.2218042 280.07332764 32.55688965 280.57243652 31.87182617 281.08666992 C31.15099854 281.61494385 30.4301709 282.14321777 29.6875 282.6875 C28.95055908 283.23059814 28.21361816 283.77369629 27.4543457 284.33325195 C6.25982091 299.83856173 -17.97667023 310.69310859 -44 315 C-45.18851563 315.20367187 -46.37703125 315.40734375 -47.6015625 315.6171875 C-88.52600163 321.70167641 -132.35101628 311.510439 -166.13916016 287.47851562 C-170.19555801 284.44035046 -174.10161708 281.23680601 -178 278 C-179.17755859 277.1646875 -179.17755859 277.1646875 -180.37890625 276.3125 C-180.91386719 275.879375 -181.44882813 275.44625 -182 275 C-182 274.34 -182 273.68 -182 273 C-182.85851562 272.62875 -182.85851562 272.62875 -183.734375 272.25 C-186.35010611 270.80683801 -188.14773456 269.11783778 -190.25 267 C-190.95640625 266.29875 -191.6628125 265.5975 -192.390625 264.875 C-194 263 -194 263 -194 261 C-194.66 261 -195.32 261 -196 261 C-197.7265625 259.1015625 -197.7265625 259.1015625 -199.625 256.625 C-200.25664062 255.81289063 -200.88828125 255.00078125 -201.5390625 254.1640625 C-203 252 -203 252 -203 250 C-203.66 250 -204.32 250 -205 250 C-208.44581403 245.55671349 -211.25618905 240.90236507 -214 236 C-214.56654297 234.99151001 -214.56654297 234.99151001 -215.14453125 233.96264648 C-224.75179532 216.69366833 -231.4347625 199.45308859 -235 180 C-235.22558594 178.86433594 -235.45117188 177.72867188 -235.68359375 176.55859375 C-238.7363199 158.38960986 -238.43676539 138.0872053 -235 120 C-234.87641113 119.34241699 -234.75282227 118.68483398 -234.62548828 118.00732422 C-226.33273327 75.31722658 -200.29371562 37.19365852 -164.546875 12.71484375 C-163.28617188 11.86599609 -163.28617188 11.86599609 -162 11 C-161.15953125 10.42378906 -160.3190625 9.84757812 -159.453125 9.25390625 C-112.64216711 -21.83798738 -50.24936805 -23.28909067 0 0 Z M-78.44921875 51.96484375 C-94.62508567 52.48263719 -110.04172058 59.31904736 -124 67 C-124 67.66 -124 68.32 -124 69 C-124.78375 69.309375 -125.5675 69.61875 -126.375 69.9375 C-128.92330128 70.92875038 -128.92330128 70.92875038 -131 72 C-131 72.66 -131 73.32 -131 74 C-131.53625 74.226875 -132.0725 74.45375 -132.625 74.6875 C-135.82460161 76.45570089 -138.29037223 78.53670203 -141 81 C-141 81.66 -141 82.32 -141 83 C-141.66 83 -142.32 83 -143 83 C-146.02517909 86.05558423 -146.02517909 86.05558423 -147 90 C-147.66 90 -148.32 90 -149 90 C-165.96468816 111.93323799 -171.02646178 137.52895532 -168.69140625 164.57421875 C-165.84545944 183.43806085 -157.39256056 199.06521472 -146 214 C-145.26716797 215.01320313 -145.26716797 215.01320313 -144.51953125 216.046875 C-137.38089338 225.27219164 -126.11844841 232.51020352 -116 238 C-115.39671875 238.35320312 -114.7934375 238.70640625 -114.171875 239.0703125 C-92.56600112 251.00051243 -66.65286614 251.30980884 -43.44140625 244.74609375 C-30.61590125 240.88830084 -20.23933037 234.91115483 -9.8046875 226.4453125 C-8 225 -8 225 -5 223 C-5 222.34 -5 221.68 -5 221 C-4.34 221 -3.68 221 -3 221 C-3 220.34 -3 219.68 -3 219 C-2.34 219 -1.68 219 -1 219 C19.11734064 198.17312659 26.4353674 172.71877703 26.14453125 144.5703125 C25.70258868 122.87560338 16.3516799 101.2223673 2 85 C1.34 85 0.68 85 0 85 C-0.268125 84.401875 -0.53625 83.80375 -0.8125 83.1875 C-1.99917406 81.00152146 -3.09599113 79.58667406 -5 78 C-5.66 78 -6.32 78 -7 78 C-7 77.34 -7 76.68 -7 76 C-8.65 75.34 -10.3 74.68 -12 74 C-12 73.34 -12 72.68 -12 72 C-32.06293774 56.48193183 -53.84538268 52.21561898 -78.44921875 51.96484375 Z" fill="#6C8D78" transform="translate(304,118)"/>
<path d="M0 0 C0 0.66 0 1.32 0 2 C0.556875 2.226875 1.11375 2.45375 1.6875 2.6875 C8.76029643 6.70178986 13.16026667 14.06651661 15.8125 21.5625 C19.21586296 34.18411464 17.24321733 46.7027496 11 58 C10.34 58 9.68 58 9 58 C8.34 59.65 7.68 61.3 7 63 C6.34 63 5.68 63 5 63 C5 63.66 5 64.32 5 65 C2.875 66.62109375 2.875 66.62109375 0 68.4375 C-0.928125 69.03433594 -1.85625 69.63117188 -2.8125 70.24609375 C-9.63132278 73.99811756 -15.45723351 75.56262752 -23.25 75.5 C-24.08192871 75.49427979 -24.91385742 75.48855957 -25.77099609 75.48266602 C-36.57961056 75.17142319 -46.48464989 70.95346469 -54 63 C-55.2421875 60.28125 -55.2421875 60.28125 -56 58 C-56.66 58 -57.32 58 -58 58 C-58.81917642 56.27398621 -59.63006016 54.5440353 -60.4375 52.8125 C-60.88996094 51.84957031 -61.34242188 50.88664062 -61.80859375 49.89453125 C-65.5576052 40.78627721 -65.52646999 28.2256466 -62 19 C-59.11178784 13.20612424 -55.85012875 8.33958888 -51 4 C-50.443125 3.34 -49.88625 2.68 -49.3125 2 C-35.21760724 -10.19017752 -15.41094422 -7.84685692 0 0 Z" fill="#D27D56" transform="translate(378,113)"/>
</g>
<text x="520" y="340" font-family="'Noto Sans TC','PingFang TC','Helvetica Neue',Helvetica,Arial,sans-serif" font-size="220" font-weight="700" fill="#2E3932" letter-spacing="-6">Offery</text>
</svg>
